<svg xmlns="http://www.w3.org/2000/svg" viewBox="-0.5 -0.5 48 48" height="48" width="48"><g><path d="M1.13975 23.5a22.36025 22.9125 0 1 0 44.7205 0A22.36025 22.9125 0 1 0 1.13975 23.5" fill="#60f542" stroke="#231f20" stroke-miterlimit="10" stroke-width="1"></path><path d="M32.453500000000005 5.58125a17.33125 17.33125 0 0 1 6.016 4.38275" fill="none" stroke="#ffffff" stroke-linecap="round" stroke-miterlimit="10" stroke-width="1"></path><path d="M33.9575 13.207a3.055 3.055 0 0 0 -4.324000000000001 0 36.730500000000006 36.730500000000006 0 0 0 -6.298000000000001 6.956c-0.7402500000000001 0.987 -1.4335 1.93875 -2.068 2.8317500000000004 -2.35 -1.8095 -4.136 -3.0785000000000005 -4.888000000000001 -3.1725000000000003 -1.28075 -0.50525 -2.66725 0.9165000000000001 -3.5250000000000004 2.115S10.951 24.8395 11.75 25.9675c0.29375 0.71675 1.927 2.2325 4.24175 4.0302500000000006 2.7612500000000004 2.1620000000000004 4.770499999999999 3.7952500000000002 5.875 3.948 1.7977500000000002 0.71675 3.06675 -1.46875 8.225 -8.448250000000002a39.7385 39.7385 0 0 0 4.9350000000000005 -8.02525 3.23125 3.23125 0 0 0 -1.06925 -4.26525Z" fill="#ffffff" stroke="#231f20" stroke-miterlimit="10" stroke-width="1"></path></g></svg>